<svg version="1.1" id="Layer_1" xmlns="http://www.w3.org/2000/svg" xmlns:xlink="http://www.w3.org/1999/xlink" x="0px" y="0px"
	 viewBox="0 0 109 178.8" style="enable-background:new 0 0 109 178.8;" xml:space="preserve">
	<style type="text/css"> .st0{fill:none;stroke:#000000;stroke-miterlimit:10;} </style>
	<path id="lightbulb-top" class="st0" d="M93.3,3.5c-17.3-3-38.8-3-38.8-3s-21.4,0-38.8,3s-16,18.8-14.2,22.7c1,3,8.3,21.8,8.3,21.8
		h89.4c0,0,7.2-18.8,8.3-21.8C109.2,22.3,110.6,6.5,93.3,3.5z"/>
	<path id="lightbulb-body" class="st0" d="M54.6,55H12.5c6.7,22.1,13.1,54.4,16,87.9h51.9c3-33.5,9.3-65.9,16-87.9H54.6z"/>
	<path id="lightbulb-body-base" class="st0" d="M78.7,145.6c-0.2,1.5-0.8,2.9-1.8,4c-1.2,1.1-2.7,1.7-4.3,1.6H36.4
		c-4.8,0-6-3.7-6.3-5.6L78.7,145.6z"/>
	<path id="lightbulb-bar-1" class="st0" d="M71.5,154.4v5.6H37.4v-5.6L71.5,154.4z"/>
	<path id="lightbulb-bar-2" class="st0" d="M71.5,169.1H37.4v-5.6h34.1V169.1z"/>
	<path id="lightbulb-base" class="st0" d="M66.5,172.9c-6.6,6.7-17.5,6.6-24.1,0L66.5,172.9z"/>
</svg>
